DBRep_DrawableShape

CASCADE Topology V1, (c) Matra-Datavision
Locations 7
1
         -1e-14               1        1.59e-13 324.797730092619 
         -6e-15       -1.59e-13               1 47.8396138457529 
              1 9.99999999999905e-15 6.00000000000159e-15 -64.7132056216255 
1
         -1e-14               1        1.59e-13 324.797730092619 
         -6e-15       -1.59e-13               1 47.8396138457529 
              1 9.99999999999905e-15 6.00000000000159e-15 -64.7132056216255 
1
-9.99200722162641e-15               1 1.58983937126322e-13 324.797730092619 
-5.99520433297585e-15 -1.58983937126322e-13               1 47.8396138457529 
              1 9.99200722162546e-15 5.99520433297743e-15 -64.7132056216255 
2  1 1 2 -1 3 1 0
1
              1               0               0             142 
              0               1               0               0 
              0               0               1               0 
2  5 -1 0
2  3 -1 2 1 1 -1 0
Curve2ds 74
1 0 1 1 0 
8 -106.49999999999463 35.500000000005372
1 2.1213203435649035 -35.500000000005372 1.4899192990469596e-13 1 
8 -106.49999999999463 35.500000000005372
1 23.972923889039397 -35.499999999999666 2.2483724008351591e-13 -1 
8 0 2.9698484809835008
1 0 0 1 0 
1 17.662981289534127 0 0 1 
1 0 0 0 1 
7 0 0  8 23 4  2.1213203435701824 1  2.0880774959684589 0.95013827249747906  2.051874371463017 0.90030087951509497  2.0122473746953782 0.85048738315277117  1.9686281318206578 0.80070278480004298  1.9202834244079412 0.75095817196415604  1.8662706447592532 0.70127114387557987  1.8053128667113514 0.6516670297489463  1.6834827542015218 0.5653137176643982  1.6265770632586563 0.52853045631352713  1.563977897993714 0.49183100674508379  1.4946915824855138 0.45523527559781968  1.4174888835430222 0.41878511031780524  1.3308062168501735 0.3825463570452311  1.2325925957664423 0.34661206499919273  1.026344448278296 0.2815141037939306  0.92270436958854785 0.25223086399894934  0.8076109355799459 0.2233299305537938  0.67929803540861911 0.19494582975313235  0.53589737141700322 0.16726806603036448  0.37550282643423227 0.14053718568372037  0.19681991256718318 0.11500825884285606  0 0.090909090903992587 
 0 9 0.4226533255141689 7 0.73754529332022412 7 1 9
7 0 0  8 23 4  23.972923889047369 -71.000000000005016  23.972923889047483 -71.498617275030227  23.972923889047607 -71.996991204854638  23.972923889047685 -72.495126168476389  23.972923889047827 -72.99297215200464  23.972923889047948 -73.490418280364409  23.972923889048008 -73.987288561248647  23.972923889048158 -74.483329702515562  23.972923889048349 -75.34686282336105  23.972923889048424 -75.714695436869775  23.972923889048509 -76.081689932554198  23.972923889048598 -76.44764724402684  23.97292388904868 -76.812148896826983  23.972923889048751 -77.174536429552731  23.972923889048836 -77.533879350013095  23.972923889048985 -78.184858962065732  23.97292388904906 -78.47769136001564  23.972923889049081 -78.766700694466877  23.972923889049241 -79.050541702473865  23.972923889049184 -79.32731933970139  23.97292388904933 -79.594628143167796  23.972923889049355 -79.849917411576484  23.972923889049408 -80.090909090965113 
 0 9 0.4226533255141689 7 0.73754529332022412 7 1 9
1 6.5262167694770739 151.89886504630499 0 1 
1 0.7853981634010756 151.89886504630397 0 1 
7 0 0  1 2 2  17.662981289534127 0.90909090908577705  0.0041924886615019238 0.90909090908581214 
 0 2 1 2
7 0 0  1 2 2  23.972923889013405 80.090909090852733  6.5262167694770312 80.090909090851071 
 0 2 1 2
7 0 0  8 23 4  2.121320343549026 0  2.0880774959461759 0.049861727502744063  2.0518743714395762 0.099699120484437576  2.0122473746716096 0.14951261684758532  1.9686281317949765 0.1992972152000945  1.9202834243802664 0.24904182803551789  1.8662706447308808 0.29872885612465261  1.805312866680969 0.34833297025099375  1.6834827541675528 0.43468628233554729  1.6265770632231358 0.47146954368639382  1.5639778979564274 0.5081689932547655  1.4946915824462905 0.54476472440195711  1.4174888835017219 0.58121488968192658  1.3308062168065955 0.61745364295444827  1.2325925957202999 0.65338793500037495  1.0263444482320199 0.71848589620388426  0.92270436953837565 0.74776913599944539  0.80761093555424601 0.77667006943737715  0.67929803535044497 0.80505417024615067  0.53589737140455562 0.83273193395863565  0.37550282640402055 0.85946281430929294  0.19681991255695525 0.88499174114752166  0 0.90909090908577983 
 0 9 0.4226533255205297 7 0.73754529333066943 7 1 9
7 0 0  8 23 4  23.972923889015444 70.999999999994984  23.972923889015323 71.498617275022397  23.97292388901522 71.996991204839233  23.972923889015107 72.495126168471003  23.972923889014986 72.9929721519959  23.972923889014883 73.490418280349957  23.972923889014783 73.987288561241613  23.972923889014659 74.483329702504918  23.972923889014464 75.346862823350449  23.972923889014389 75.714695436858833  23.972923889014297 76.081689932542645  23.972923889014211 76.447647244014632  23.972923889014133 76.81214889681425  23.972923889014055 77.174536429539373  23.972923889013966 77.533879349998713  23.972923889013824 78.184858962033815  23.972923889013778 78.477691359987389  23.972923889013668 78.76670069437435  23.972923889013657 79.050541702449749  23.972923889013554 79.327319339585415  23.972923889013519 79.594628143086823  23.972923889013448 79.849917411470187  23.972923889013394 80.090909090852762 
 0 9 0.4226533255205297 7 0.73754529333066943 7 1 9
7 0 0  1 2 2  17.662981289534127 0.090909090903993406  0.0041924886492006189 0.090909090903957296 
 0 2 1 2
7 0 0  1 2 2  23.972923889049412 -80.090909090965098  6.5262167694770312 -80.090909090967571 
 0 2 1 2
1 17.662981289534127 0 0 1 
1 0 0 0 1 
7 0 0  1 2 2  0 1  17.662981289534127 1 
 0 2 15.329528911618521 2
8 0 15.329528911618521
7 0 0  1 2 2  0 0  17.662981289534127 0 
 0 2 15.329528911618521 2
1 12.132548339959364 0 0 1 
1 0 0 0 1 
7 0 0  4 5 2  0.0041924873021720937 0.090909090903982415  0.0031986177292417052 0.090909090903980416  0.0021508331892512891 0.090987012663486522  0.0010752321790300208 0.091142813011341459  0 0.09137042706928683 
 0 5 1 5
7 0 0  4 5 2  0.7853981634010756 -80.09090909096831  0.68720484137774784 -80.090909090968324  0.58901205640825105 -80.090129873373243  0.49083847486028737 -80.088571869894707  0.39269908225718936 -80.086295729315253 
 0 5 1 5
7 0 0  4 5 2  12.12836334071414 0.90909090908317269  12.129355435109089 0.90909090908317269  12.130401355042398 0.90901298730911662  12.131475037969489 0.90885718699553275  12.132548339959364 0.9086295729178856 
 0 5 1 5
7 0 0  4 5 2  -2.5313084961453569e-13 80.090909090823601  0.098193315901889747 80.090909090823601  0.19638612579132145 80.090129873083015  0.29455968003590072 80.088571869947202  0.3926990811352411 80.086295729170729 
 0 5 1 5
7 0 0  4 5 2  0 0.90862957291788493  0.0010752350234920513 0.90885718757858547  0.0021508311504390134 0.90901298696190558  0.0031986186940567204 0.90909090908578971  0.0041924873144767501 0.90909090908578782 
 0 5 1 5
7 0 0  4 5 2  0.39269908113491286 80.086295729170715  0.49083873335966843 80.088571875777717  0.58901206721841992 80.090129869610919  0.68720493548496164 80.090909090849763  0.7853981634010756 80.090909090849749 
 0 5 1 5
7 0 0  4 5 2  12.132548339959364 0.091370427069286719  12.131475035210558 0.091142812405938245  12.130401356913746 0.090987013022016297  12.129355434187227 0.090909090901393791  12.128363340701874 0.090909090901393944 
 0 5 1 5
7 0 0  4 5 2  0.39269908225751754 -80.086295729315253  0.29455942888988568 -80.088571875948745  0.19638609401740126 -80.090129869787972  0.098193225874237677 -80.090909090994188  -2.5313084961453569e-13 -80.090909090994188 
 0 5 1 5
1 0 151.89886504630397 0 1 
1 6.0000000000007958 151.89886504630499 0 1 
1 12.132548339959364 0 0 1 
1 0 0 0 1 
7 0 0  1 2 2  0 1  12.132548339959364 1 
 0 2 10.765643584128142 2
8 0 10.765643584128142
7 0 0  1 2 2  0 0  12.132548339959364 0 
 0 2 10.765643584128142 2
1 17.662981289534127 0 0 1 
1 0 0 0 1 
7 0 0  1 2 2  12.128363339907121 0.090909090901392375  0.0041850000507535493 0.090909090901351602 
 0 2 1 2
7 0 0  1 2 2  6.0000000000007958 -80.090909090993179  -5.9999999999991083 -80.090909090993705 
 0 2 1 2
7 0 0  4 5 2  0.0041849992560056689 0.09090909090134891  0.0031929048585670836 0.090909090901348855  0.0021469849224853778 0.090987012675801712  0.0010733019925666107 0.091142812990167549  0 0.091370427068928728 
 0 5 1 5
7 0 0  4 5 2  -2.5313084961453569e-13 80.090909090993733  0.098193316148572629 80.090909090993733  0.19638612628473717 80.090129873249211  0.29455968077580474 80.08857187010554  0.39269908212147531 80.086295729317925 
 0 5 1 5
1 17.662981289534127 0 0 1 
1 0 0 0 1 
7 0 0  4 5 2  0 0.9086295729175573  0.0010733047461779046 0.90885718757981904  0.0021469830402188559 0.90901298696297017  0.0031929057640517136 0.90909090908321821  0.0041849992469739066 0.9090909090832181 
 0 5 1 5
7 0 0  4 5 2  0.39269908129484021 -80.086295729168356  0.29455942816763103 -80.088571875790976  0.19638609353579553 -80.090129869622487  0.098193225633434578 -80.090909090824965  -2.5313084961453569e-13 -80.090909090824965 
 0 5 1 5
7 0 0  1 2 2  12.128363339919385 0.90909090908317169  0.0041850000417218208 0.90909090908321721 
 0 2 1 2
7 0 0  1 2 2  6.0000000000007958 80.09090909082461  -5.9999999999991083 80.090909090824951 
 0 2 1 2
1 -5.9999999999991047 151.89886504630499 0 -1 
1 0 -151.89886504630499 0 1 
7 0 0  1 2 2  0 1  17.662981289534127 1 
 0 2 15.329528911618521 2
8 0 15.329528911618521
7 0 0  1 2 2  0 0  17.662981289534127 0 
 0 2 15.329528911618521 2
1 2.9698484809835008 0 0 1 
1 0 0 0 1 
7 0 0  4 5 2  17.662981289534127 0.091370427068929477  17.661906054513345 0.091142812409344562  17.660830458389249 0.090987013026804231  17.659782670848418 0.09090909090331116  17.658788802230507 0.090909090903311132 
 0 5 1 5
7 0 0  4 5 2  0.39269908212163934 80.086295729317925  0.49083873409906154 80.088571875913772  0.58901206771016934 80.090129869739187  0.68720493572901353 80.090909090974108  0.78539816339736856 80.090909090974108 
 0 5 1 5
7 0 0  1 2 2  17.658788800883514 0.090909090903326301  0 0.090909090903238593 
 0 2 1 2
7 0 0  1 2 2  -6.5262167694753686 -80.090909090973966  -23.972923889048037 -80.090909090973042 
 0 2 1 2
1 0.7853981633930367 -151.89886504630499 0 1 
1 -6.5262167694753677 151.89886504630499 0 -1 
7 0 0  4 5 2  17.658788802221441 0.90909090908508916  17.659782671796801 0.90909090908508916  17.660830456339493 0.9090129873252043  17.661906057352471 0.90885718697658358  17.662981289534127 0.90862957291755464 
 0 5 1 5
7 0 0  4 5 2  0.78539816339736856 -80.090909090843681  0.68720484113424884 -80.090909090843681  0.58901205592495565 -80.09012987324482  0.49083847413734644 -80.08857186975861  0.39269908129484021 -80.086295729168327 
 0 5 1 5
1 2.9698484809835008 0 0 1 
1 0 0 0 1 
7 0 0  1 2 2  17.658788800874454 0.9090909090850734  0 0.90909090908516654 
 0 2 1 2
7 0 0  1 2 2  -6.5262167694753686 80.090909090843425  -23.97292388901203 80.090909090846225 
 0 2 1 2
1 0 1 1 0 
8 0 2.9698484809835008
1 0 0 1 0 
8 -35.500000000005343 106.49999999999466
1 0.84852813741772426 -35.500000000005343 1.6897594434795067e-13 -1 
8 -35.500000000005343 106.49999999999466
1 -23.972923889038015 -35.500000000000092 2.2483724008351858e-13 1 
7 0 0  7 26 5  2.9698484809835008 0.090909090903239412  2.7803653332695846 0.11410992530445543  2.6079540191786847 0.13867422721491471  2.4528569378415073 0.16437877408958762  2.3137860609434129 0.19097021074753209  2.1889425045699058 0.21822107968747204  2.0765629701726378 0.24596088581710532  1.8342906809718127 0.31303797316950804  1.7144048458138754 0.35270616745960048  1.610754618126554 0.39284258251626314  1.5200216195677652 0.43327519847179219  1.4397967076075882 0.47389680612026275  1.3682177874328829 0.51465602990502801  1.2193027412052666 0.60925649506708424  1.147261350655137 0.66314566267349251  1.0845023263717459 0.71715420336654823  1.0291299173682373 0.7712392784287202  0.97974545199787566 0.82537395238859335  0.93533753671399145 0.87954612446405844  0.88809842907053349 0.94321733451428336  0.88120699654765922 0.95267904151088911  0.87443916407044164 0.96214163602224989  0.86779100081717353 0.97160507099405469  0.86125877058132982 0.98106930283005767  0.854838931771568 0.99053429139207816  0.84852813741172806 1 
 0 8 0.22115793270869069 6 0.52752272520526855 6 0.92979561191574145 6 1 8
7 0 0  7 26 5  -23.97292388904803 -80.090909090973028  -23.972923889047983 -79.858900746960884  -23.97292388904793 -79.613257727856308  -23.972923889047873 -79.356212259109526  -23.972923889047809 -79.090297892530117  -23.972923889047745 -78.817789203130744  -23.972923889047689 -78.540391141834377  -23.972923889047536 -77.869620268310342  -23.97292388904744 -77.472938325408748  -23.972923889047362 -77.071574174844628  -23.972923889047269 -76.667248015285693  -23.972923889047166 -76.261031938803512  -23.972923889047085 -75.853439700955164  -23.972923889046871 -74.907435049334595  -23.97292388904674 -74.368543373271066  -23.972923889046641 -73.828457966338306  -23.972923889046495 -73.287607215720115  -23.972923889046388 -72.746260476118678  -23.97292388904626 -72.204538755364851  -23.972923889046118 -71.567826654862614  -23.972923889046093 -71.473209584896537  -23.972923889046079 -71.378583639782931  -23.972923889046058 -71.283949290064896  -23.972923889046037 -71.189306971704852  -23.972923889046019 -71.094657086084652  -23.972923889045997 -71.000000000005443 
 0 8 0.22115793270869069 6 0.52752272520526855 6 0.92979561191574145 6 1 8
7 0 0  8 23 4  0.84852813743572431 0  0.88177098503866047 0.049861727502785259  0.91797410954502701 0.099699120484309817  0.95760110631372464 0.1495126168477183  1.0012203491900749 0.19929721520010038  1.0495650566044801 0.24904182803538294  1.1035778362545732 0.2987288561247623  1.1645356143042978 0.348332970250954  1.2863657268179285 0.43468628233550571  1.3432714177625882 0.47146954368641669  1.4058705830292935 0.50816899325476161  1.4751568985394532 0.54476472440191492  1.5523595974842495 0.58121488968190227  1.6390422641796223 0.61745364295445182  1.7372558852659146 0.65338793500033143  1.94350403275795 0.71848589620491765  2.0471441114268352 0.74776913599434458  2.1622375454841682 0.77667006944741224  2.2905504455625225 0.80505417023313974  2.4339511096403039 0.83273193396749878  2.594345654552678 0.85946281430485039  2.7730285684336757 0.88499174114773749  2.9698484809835008 0.90909090908516133 
 0 9 0.42265332551696433 7 0.73754529332391894 7 1 9
7 0 0  8 23 4  -23.972923889014062 70.999999999994557  -23.972923889013956 71.498617275022426  -23.972923889013835 71.996991204837599  -23.972923889013728 72.495126168471842  -23.972923889013618 72.992972151995559  -23.972923889013501 73.490418280348294  -23.972923889013391 73.987288561242252  -23.972923889013281 74.483329702504079  -23.972923889013092 75.346862823349625  -23.972923889013003 75.71469543685879  -23.972923889012922 76.08168993254219  -23.972923889012844 76.44764724401368  -23.972923889012755 76.812148896813554  -23.972923889012673 77.174536429539089  -23.972923889012598 77.533879349997889  -23.972923889012449 78.184858962043748  -23.972923889012378 78.477691359930844  -23.972923889012321 78.7667006944896  -23.972923889012261 79.050541702299313  -23.972923889012183 79.327319339686795  -23.97292388901214 79.594628143038236  -23.972923889012073 79.849917411471935  -23.972923889012019 80.090909090846168 
 0 9 0.42265332551696433 7 0.73754529332391894 7 1 9
Curves 41
1 -50 35.5 34.876605022578744 0 0 1 
1 -14.49999999999463 35.5 36.997925366143647 -1 0 1.4899192990469596e-13 
1 -50 35.5 34.876605022578744 1 0 0 
7 0 0  1 2 2  -60 35.5 37.21005740049435  -50 35.5 34.876605022578744 
 0 2 1 2
7 0 0  8 23 4  -49.999999999999986 35.5 36.997925366148934  -50.498617275025197 35.5 36.997925366149005  -50.996991204849607 35.499999999999993 36.99792536614909  -51.495126168471359 35.500000000000014 36.99792536614914  -51.992972151999609 35.499999999999993 36.997925366149232  -52.490418280359378 35.499999999999986 36.997925366149317  -52.987288561243616 35.500000000000028 36.997925366149353  -53.483329702510531 35.5 36.99792536614946  -54.34686282335602 35.5 36.99792536614958  -54.714695436864744 35.5 36.99792536614963  -55.081689932549168 35.5 36.997925366149687  -55.447647244021809 35.5 36.997925366149744  -55.812148896821952 35.5 36.997925366149801  -56.1745364295477 35.500000000000007 36.997925366149843  -56.533879350008064 35.5 36.9979253661499  -57.184858962060702 35.5 36.99792536615  -57.47769136001061 35.5 36.997925366150049  -57.766700694461846 35.500000000000028 36.997925366150064  -58.050541702468834 35.499999999999957 36.997925366150177  -58.327319339696359 35.500000000000043 36.997925366150128  -58.594628143162765 35.499999999999986 36.997925366150227  -58.849917411571454 35.5 36.997925366150241  -59.090909090960082 35.5 36.997925366150284 
 0 9 0.4226533255141689 7 0.73754529332022412 7 1 9
1 89.374446074154406 -151.89886504630601 -0.0029289321881442701 0 1 0 
7 0 0  1 2 2  101.09090909085776 35.5 36.997925366126424  101.09090909085819 47.836684913599825 24.661240452526677 
 0 2 1 2
7 0 0  8 23 4  92.000000000000014 35.5 36.997925366127774  92.498617275027428 35.5 36.997925366127696  92.996991204844264 35.5 36.997925366127625  93.495126168476034 35.5 36.997925366127554  93.992972152000931 35.500000000000007 36.997925366127475  94.490418280354987 35.5 36.997925366127404  94.987288561246643 35.499999999999993 36.997925366127333  95.483329702509948 35.5 36.997925366127255  96.34686282335548 35.5 36.997925366127127  96.714695436863863 35.5 36.997925366127077  97.081689932547675 35.5 36.997925366127014  97.447647244019663 35.500000000000007 36.997925366126957  97.812148896819281 35.5 36.997925366126907  98.174536429544403 35.5 36.99792536612685  98.533879350003744 35.5 36.997925366126793  99.184858962038845 35.5 36.997925366126701  99.47769135999242 35.499999999999986 36.997925366126672  99.766700694379381 35.500000000000021 36.997925366126594  100.05054170245478 35.499999999999986 36.997925366126594  100.32731933959045 35.500000000000014 36.997925366126523  100.59462814309185 35.499999999999993 36.997925366126502  100.84991741147522 35.500000000000007 36.997925366126452  101.09090909085779 35.5 36.997925366126417 
 0 9 0.4226533255205297 7 0.73754529333066943 7 1 9
7 0 0  1 2 2  -59.090909090960068 35.5 36.997925366150284  -59.090909090960452 47.836684913625291 24.661240452525075 
 0 2 1 2
7 0 0  1 2 2  92 35.5 34.876605022578744  102 35.5 37.21005740049435 
 0 2 1 2
1 -50 46.339613845800692 24.036991176778052 1 0 0 
1 -50 46.339613845800692 24.036991176778052 0 -0.70710678118654757 0.70710678118654757 
7 0 0  1 2 2  -60 47.98961384580069 24.720443554693659  -50 46.339613845800692 24.036991176778052 
 0 2 1 2
7 0 0  4 5 2  -59.090909090960182 47.836684913625234 24.661240452525071  -59.090909090960203 47.837379245263939 24.660546120886373  -59.090129873365129 47.837982702831823 24.659760836603475  -59.088571869886586 47.838477077939743 24.658902908803373  -59.086295729307132 47.838852641136363 24.657996219041991 
 0 5 1 5
7 0 0  4 5 2  101.09090909083173 47.839613845787923 24.65416938471478  101.09090909083173 47.839613845787923 24.655151317873802  101.09012987309114 47.839485274860728 24.656133306847  101.08857186995533 47.839228204343314 24.657089529192927  101.08629572917886 47.838852641115196 24.657996219033226 
 0 5 1 5
7 0 0  4 5 2  101.08629572917884 47.838852641115196 24.657996219033222  101.08857187578585 47.838477076926061 24.658902911193618  101.09012986961905 47.837982703655854 24.659760834905317  101.09090909085789 47.837379244573029 24.660546121553413  101.09090909085788 47.836684913599768 24.66124045252667 
 0 5 1 5
7 0 0  4 5 2  -59.086295729307132 47.838852641136363 24.657996219041994  -59.088571875940616 47.83922820533089 24.657089526871463  -59.090129869779844 47.839485274314356 24.656133308494834  -59.090909090986059 47.839613845813389 24.655151316971924  -59.090909090986059 47.839613845813389 24.654169384713178 
 0 5 1 5
1 89.367375006342499 -151.89886504630601 0 0 1 0 
7 0 0  1 2 2  92 46.339613845800692 24.036991176778052  102 47.98961384580069 24.720443554693659 
 0 2 1 2
1 -50 46.339613845800692 13.27134759264991 1 0 0 
1 -50 46.339613845800692 13.27134759264991 0 0 1 
7 0 0  1 2 2  -60 47.98961384580069 12.587895214734296  -50 46.339613845800692 13.27134759264991 
 0 2 1 2
7 0 0  1 2 2  -59.090909090986074 47.839613845813389 24.654169384713182  -59.090909090986486 47.83961384581346 12.654169384713278 
 0 2 1 2
7 0 0  4 5 2  -59.090909090986514 47.83961384581346 12.654169384713281  -59.090909090986514 47.83961384581346 12.653187451551792  -59.090129873241978 47.839485274885618 12.65220546257612  -59.088571870098328 47.839228204366911 12.651249240227928  -59.086295729310713 47.838852641136953 12.650342550385725 
 0 5 1 5
7 0 0  1 2 2  92 46.339613845800692 13.27134759264991  102 47.98961384580069 12.587895214734296 
 0 2 1 2
7 0 0  4 5 2  101.08629572917557 47.838852641114656 12.65034255039496  101.08857187579819 47.839228205307386 12.651249242563631  101.09012986962971 47.839485274289586 12.652205460938045  101.09090909083218 47.839613845787994 12.653187452458546  101.09090909083218 47.839613845787994 12.654169384714884 
 0 5 1 5
7 0 0  1 2 2  101.09090909083172 47.839613845787923 24.65416938471478  101.09090909083217 47.839613845787994 12.654169384714876 
 0 2 1 2
1 77.367375006342598 -151.89886504630601 0 0 -1 0 
1 -50 35.5 2.4317337468492184 1 0 0 
1 -50 35.5 2.4317337468492184 0 0.70710678118654757 0.70710678118654757 
7 0 0  1 2 2  -60 35.5 0.098281368933605506  -50 35.5 2.4317337468492184 
 0 2 1 2
7 0 0  4 5 2  -59.086295729310706 47.838852641136953 12.650342550385723  -59.088571875906553 47.838477076947868 12.649435858227985  -59.09012986973196 47.837982703678378 12.648577934518809  -59.090909090966889 47.837379244596832 12.647792647872926  -59.090909090966889 47.836684913625326 12.647098316901417 
 0 5 1 5
7 0 0  1 2 2  -59.09090909096669 47.836684913625341 12.64709831690147  -59.090909090967614 35.5 0.31041340327590916 
 0 2 1 2
1 77.360303938530805 -151.89886504630601 -0.0029289321881442701 0 -1 0 
7 0 0  4 5 2  101.09090909085089 47.836684913599861 12.647098316903016  101.09090909085089 47.837379245240257 12.64779264854341  101.09012987325205 47.837982702809406 12.648577932828454  101.08857186976583 47.838477077917986 12.649435860631005  101.08629572917555 47.838852641114656 12.65034255039496 
 0 5 1 5
7 0 0  1 2 2  92 35.5 2.4317337468492184  102 35.5 0.098281368933605506 
 0 2 1 2
7 0 0  1 2 2  101.0909090908507 47.836684913599875 12.647098316903071  101.09090909085165 35.499999999999993 0.31041340330297018 
 0 2 1 2
1 -50 35.5 -0.53811473413428246 0 0 1 
1 -14.49999999999466 35.5 0.31041340328344175 1 0 1.6897594434795067e-13 
7 0 0  7 26 5  -59.0909090909676 35.5 0.31041340327591627  -58.858900746955456 35.5 0.31041340327594824  -58.613257727850879 35.5 0.31041340327598732  -58.356212259104097 35.5 0.31041340327603351  -58.090297892524688 35.5 0.31041340327608324  -57.817789203125315 35.5 0.31041340327612588  -57.540391141828948 35.5 0.31041340327617206  -56.869620268304914 35.5 0.31041340327628575  -56.472938325403319 35.5 0.3104134032763568  -56.071574174839199 35.5 0.3104134032764172  -55.667248015280265 35.5 0.3104134032764847  -55.261031938798084 35.5 0.31041340327656641  -54.853439700949735 35.5 0.31041340327662681  -53.907435049329166 35.5 0.31041340327678313  -53.368543373265638 35.5 0.3104134032768826  -52.828457966332877 35.499999999999986 0.31041340327695721  -52.287607215714687 35.500000000000007 0.31041340327706735  -51.74626047611325 35.499999999999993 0.31041340327714551  -51.204538755359422 35.5 0.31041340327724498  -50.567826654857186 35.5 0.31041340327735156  -50.473209584891109 35.5 0.31041340327736933  -50.378583639777503 35.5 0.31041340327737998  -50.283949290059468 35.5 0.31041340327739775  -50.189306971699423 35.5 0.31041340327741196  -50.094657086079224 35.499999999999993 0.31041340327742617  -50.000000000000014 35.499999999999993 0.31041340327744038 
 0 8 0.22115793270869069 6 0.52752272520526855 6 0.92979561191574145 6 1 8
7 0 0  8 23 4  91.999999999999986 35.5 0.31041340330144251  92.498617275027854 35.499999999999993 0.31041340330152423  92.996991204843027 35.5 0.31041340330161304  93.49512616847727 35.5 0.31041340330169476  93.992972152000988 35.5 0.31041340330177647  94.490418280353722 35.5 0.31041340330186529  94.987288561247681 35.5 0.310413403301947  95.483329702509508 35.5 0.31041340330202871  96.346862823355053 35.499999999999993 0.31041340330217082  96.714695436864218 35.5 0.31041340330223832  97.081689932547619 35.5 0.31041340330229872  97.447647244019109 35.5 0.31041340330235911  97.812148896818982 35.5 0.31041340330242662  98.174536429544517 35.5 0.31041340330248701  98.533879350003318 35.5 0.31041340330254386  99.184858962049177 35.5 0.31041340330265399  99.477691359936273 35.5 0.31041340330270728  99.766700694495029 35.5 0.31041340330275347  100.05054170230474 35.499999999999993 0.3104134033027961  100.32731933969222 35.5 0.31041340330285294  100.59462814304366 35.499999999999993 0.31041340330288847  100.84991741147736 35.5 0.31041340330293821  101.0909090908516 35.5 0.31041340330297729 
 0 9 0.42265332551696433 7 0.73754529332391894 7 1 9
Polygon3D 0
PolygonOnTriangulations 0
Surfaces 21
1 -50 35.5 34.876605022578744 0 -1 0 0 0 1 -1 0 0 
9 0 0 0 0 1 1 2 2 2 2 -60 35.5 37.21005740049435  -50 35.5 34.876605022578744  
-60 35.5 37.846453503562245  -50 35.5 37.846453503562245  

0 2
2.9698484809835008 2

0 2
1 2

1 -50 35.5 37.846453503562245 1 0 0 0 0 -1 -0 1 0 
1 84.759713940963806 -303.797730092611 4.6118032010024601 0.70710678118654557 0 0.70710678118654957 0.70710678118654957 0 -0.70710678118654557 -0 1 0 
9 0 0 0 0 1 1 2 2 2 2 92 35.5 34.876605022578744  102 35.5 37.21005740049435  
92 35.5 37.846453503562245  102 35.5 37.846453503562245  

0 2
2.9698484809835008 2

0 2
1 2

9 0 0 0 0 1 1 2 2 2 2 -60 47.98961384580069 24.720443554693659  -50 46.339613845800692 24.036991176778052  
-60 35.5 37.21005740049435  -50 35.5 34.876605022578744  

0 2
17.662981289534127 2

0 2
1 2

2 89.367375006342499 -303.79773009260998 -0.01 0 1 0 0 -0 1 1 0 -0 0.01
9 0 0 0 0 1 1 2 2 2 2 92 46.339613845800692 24.036991176778052  102 47.98961384580069 24.720443554693659  
92 35.5 34.876605022578744  102 35.5 37.21005740049435  

0 2
17.662981289534127 2

0 2
1 2

1 -50 46.339613845800692 24.036991176778052 0 -0.70710678118654757 -0.70710678118654757 0 -0.70710678118654757 0.70710678118654757 -1 -0 0 
9 0 0 0 0 1 1 2 2 2 2 -60 47.98961384580069 12.587895214734296  -50 46.339613845800692 13.27134759264991  
-60 47.98961384580069 24.720443554693659  -50 46.339613845800692 24.036991176778052  

0 2
12.132548339959364 2

0 2
1 2

9 0 0 0 0 1 1 2 2 2 2 92 46.339613845800692 13.27134759264991  102 47.98961384580069 12.587895214734296  
92 46.339613845800692 24.036991176778052  102 47.98961384580069 24.720443554693659  

0 2
12.132548339959364 2

0 2
1 2

1 83.367375006341703 -303.797730092611 0 0 0 1 1 0 -0 -0 1 0 
1 -50 46.339613845800692 13.27134759264991 0 -1 0 0 0 1 -1 0 0 
9 0 0 0 0 1 1 2 2 2 2 -60 35.5 0.098281368933605506  -50 35.5 2.4317337468492184  
-60 47.98961384580069 12.587895214734296  -50 46.339613845800692 13.27134759264991  

0 2
17.662981289534127 2

0 2
1 2

2 77.367375006342598 -303.797730092611 -0.01 0 -1 0 0 0 1 -1 0 0 0.01
9 0 0 0 0 1 1 2 2 2 2 92 35.5 2.4317337468492184  102 35.5 0.098281368933605506  
92 46.339613845800692 13.27134759264991  102 47.98961384580069 12.587895214734296  

0 2
17.662981289534127 2

0 2
1 2

1 -50 35.5 2.4317337468492184 0 -0.70710678118654757 0.70710678118654757 0 0.70710678118654757 0.70710678118654757 -1 0 0 
9 0 0 0 0 1 1 2 2 2 2 -60 35.5 -0.53811473413428246  -50 35.5 -0.53811473413428246  
-60 35.5 0.098281368933605506  -50 35.5 2.4317337468492184  

0 2
2.9698484809835008 2

0 2
1 2

1 81.975036071720197 -303.797730092611 4.6118032010012602 -0.70710678118654557 0 0.70710678118654957 0.70710678118654957 0 0.70710678118654557 0 1 -0 
9 0 0 0 0 1 1 2 2 2 2 92 35.5 -0.53811473413428246  102 35.5 -0.53811473413428246  
92 35.5 2.4317337468492184  102 35.5 0.098281368933605506  

0 2
2.9698484809835008 2

0 2
1 2

1 -50 35.5 -0.53811473413428246 0 -1 0 0 0 1 -1 0 0 
Triangulations 0

TShapes 117
Ve
1e-07
-50 35.5 34.8766050225787
0 0

0101101
*
Ve
5.00000001421086e-06
-50 35.5 36.9979253661489
0 0

0101101
*
Ed
 1e-07 1 1 0
1  1 0 0 2.12132034357019
2  1 2 0 0 2.12132034357019
4 C0 2 0 3 0
0

0101000
+117 0 -116 0 *
Ve
5.00000001588822e-06
92 35.5 36.9979253661278
0 0

0101101
*
Ed
 1.5e-07 1 1 0
1  2 0 -106.499999999995 35.5000000000054
2  2 1 0 -106.499999999995 35.5000000000054
2  3 4 4 -106.499999999995 35.5000000000054
0

0101000
+114 0 -116 0 *
Ve
1.00000003552714e-07
92 35.5 34.8766050225787
0 0

0101101
*
Ed
 1e-07 1 1 0
1  1 0 0 2.12132034354904
2  1 2 0 0 2.12132034354904
4 C0 2 0 3 0
2  4 5 6 0 2.12132034354904
0

0101000
+112 6 -114 6 *
Ed
 1e-07 1 1 0
1  3 0 0 142
0

0101000
+117 0 -112 0 *
Wi

0101100
-115 0 +113 0 +111 5 +110 0 *
Fa
0  1e-07 1 0

0101000
+109 0 *
Ve
5.000001e-06
-59.0909090909601 35.5 36.9979253661503
0 0

0101101
*
Ed
 1e-07 1 1 0
1  4 0 0.0909090909039903 1
2  5 6 0 0.0909090909039903 1
2  6 2 0 0.0909090909039903 1
4 C0 6 0 2 0
0

0101000
+107 0 -117 0 *
Ed
 5e-06 1 1 0
1  5 0 0 1
2  7 2 0 0 1
2  8 4 4 0 1
0

0101000
+116 0 -107 0 *
Wi

0101100
-106 0 -115 0 -105 0 *
Fa
0  1e-07 2 0

0101000
+104 0 *
Ve
5.000001e-06
-59.0909090909603 47.8366849136252 24.6612404525251
0 0

0101101
*
Ve
5.000001e-06
101.090909090858 47.8366849135998 24.6612404525267
0 0

0101101
*
Ed
 1e-07 1 1 0
1  6 0 -231.989774137272 -71.8079559554541
2  9 4 0 -231.989774137272 -71.8079559554541
2  10 7 0 -231.989774137272 -71.8079559554541
4 G1 4 0 7 0
0

0101000
+102 7 -101 7 *
Ve
5.000001e-06
101.090909090858 35.5 36.9979253661264
0 0

0101101
*
Ed
 5e-06 1 1 0
1  7 0 0 1
2  11 8 0 0 1
2  12 4 4 0 1
0

0101000
+99 0 -101 0 *
Ed
 5e-06 1 1 0
1  8 0 0 1
2  13 5 0 0 1
2  14 4 4 0 1
0

0101000
+114 0 -99 0 *
Ed
 5e-06 1 1 0
1  9 0 0 1
2  15 6 0 0 1
2  16 4 4 0 1
0

0101000
+107 0 -102 0 *
Wi

0101100
-100 4 +98 0 +97 0 -113 0 -105 0 -96 0 *
Fa
0  1e-07 4 4

0101000
+95 0 *
Ed
 1e-07 1 1 0
1  10 0 0 0.909090909085782
2  17 8 0 0 0.909090909085782
2  18 5 0 0 0.909090909085782
4 C0 8 0 5 0
0

0101000
+112 0 -99 0 *
Wi

0101100
-93 0 +97 0 +111 5 *
Fa
0  1e-07 5 0

0101000
+92 0 *
Ve
1e-07
-50 46.3396138458007 24.0369911767781
0 0

0101101
*
Ve
1.00000007105427e-07
92 46.3396138458007 24.036991176778
0 0

0101101
*
Ed
 1e-07 1 1 0
1  11 0 0 142
0

0101000
+90 0 -89 0 *
Ed
 1e-07 1 1 0
1  12 0 0 15.3295289116185
2  19 6 0 0 15.3295289116185
4 C0 6 0 3 0
0

0101000
+90 0 -117 0 *
Ed
 1.00000003552714e-07 1 1 0
1  12 0 0 15.3295289116185
2  19 6 0 0 15.3295289116185
4 C0 6 0 3 0
2  20 8 6 0 15.3295289116185
0

0101000
+89 6 -112 6 *
Wi

0101100
+88 0 -110 0 -87 0 +86 5 *
Fa
0  1e-07 9 0

0101000
+85 0 *
Ve
5.000001e-06
-59.0862957293072 47.8388526411364 24.657996219042
0 0

0101101
*
Ed
 1e-07 1 1 0
1  13 0 0.0913704270692847 1
2  21 10 0 0.0913704270692847 1
2  22 6 0 0.0913704270692847 1
4 C0 10 0 6 0
0

0101000
+83 0 -90 0 *
Ed
 5e-06 1 1 0
1  14 0 0 1
2  23 6 0 0 1
2  24 7 4 0 1
0

0101000
+102 0 -83 0 *
Wi

0101100
-82 0 -87 0 +106 0 -96 0 -81 0 *
Fa
0  1e-07 6 0

0101000
+80 0 *
Ve
5.000001e-06
101.090909090832 47.8396138457879 24.6541693847148
0 0

0101101
*
Ve
5.000001e-06
101.086295729179 47.8388526411152 24.6579962190332
0 0

0101101
*
Ed
 5e-06 1 1 0
1  15 0 0 1
2  25 11 0 0 1
2  26 7 4 0 1
0

0101000
+78 0 -77 0 *
Ed
 5e-06 1 1 0
1  16 0 0 1
2  27 8 0 0 1
2  28 7 4 0 1
0

0101000
+77 0 -101 0 *
Ve
5.000001e-06
-59.0909090909861 47.8396138458134 24.6541693847132
0 0

0101101
*
Ed
 5e-06 1 1 0
1  17 0 0 1
2  29 10 0 0 1
2  30 7 4 0 1
0

0101000
+83 0 -74 0 *
Ed
 1e-07 1 1 0
1  18 0 -231.989774137298 -71.8079559554804
2  31 7 0 -231.989774137298 -71.8079559554804
2  32 12 0 -231.989774137298 -71.8079559554804
4 G1 7 0 12 0
0

0101000
+74 7 -78 7 *
Wi

0101100
-76 0 -75 0 +100 4 -81 0 -73 0 -72 4 *
Fa
0  1e-07 7 4

0101000
+71 0 *
Ed
 1e-07 1 1 0
1  19 0 0 0.908629572917883
2  33 11 0 0 0.908629572917883
2  34 8 0 0 0.908629572917883
4 C0 11 0 8 0
0

0101000
+89 0 -77 0 *
Wi

0101100
-69 0 -75 0 +98 0 +93 0 +86 5 *
Fa
0  1e-07 8 0

0101000
+68 0 *
Ve
1e-07
-50 46.3396138458007 13.2713475926499
0 0

0101101
*
Ve
1.00000002664535e-07
92 46.3396138458007 13.2713475926499
0 0

0101101
*
Ed
 1e-07 1 1 0
1  20 0 0 142
0

0101000
+66 0 -65 0 *
Ed
 1e-07 1 1 0
1  21 0 0 10.7656435841281
2  35 10 0 0 10.7656435841281
4 C0 10 0 3 0
0

0101000
+66 0 -90 0 *
Ed
 1e-07 1 1 0
1  21 0 0 10.7656435841281
2  35 10 0 0 10.7656435841281
4 C0 10 0 3 0
2  36 11 6 0 10.7656435841281
0

0101000
+65 6 -89 6 *
Wi

0101100
+64 0 -88 0 -63 0 +62 5 *
Fa
0  1e-07 13 0

0101000
+61 0 *
Ve
5.000001e-06
-59.0862957293107 47.838852641137 12.6503425503857
0 0

0101101
*
Ed
 1e-07 1 1 0
1  22 0 0.0913704270689294 1
2  37 14 0 0.0913704270689294 1
2  38 10 0 0.0913704270689294 1
4 C0 14 0 10 0
0

0101000
+59 0 -66 0 *
Ve
5.000001e-06
-59.0909090909865 47.8396138458135 12.6541693847133
0 0

0101101
*
Ed
 5e-06 1 1 0
1  23 0 0 1
2  39 10 0 0 1
2  40 12 4 0 1
0

0101000
+74 0 -57 0 *
Ed
 5e-06 1 1 0
1  24 0 0 1
2  41 10 0 0 1
2  42 15 4 0 1
0

0101000
+57 0 -59 0 *
Wi

0101100
-58 0 -63 0 +82 0 -73 0 -56 0 -55 0 *
Fa
0  1e-07 10 0

0101000
+54 0 *
Ve
5.000001e-06
101.086295729176 47.8388526411147 12.650342550395
0 0

0101101
*
Ed
 1e-07 1 1 0
1  25 0 0 0.908629572917555
2  43 16 0 0 0.908629572917555
2  44 11 0 0 0.908629572917555
4 C0 16 0 11 0
0

0101000
+65 0 -52 0 *
Ve
5.000001e-06
101.090909090832 47.839613845788 12.6541693847149
0 0

0101101
*
Ed
 5e-06 1 1 0
1  26 0 0 1
2  45 11 0 0 1
2  46 15 4 0 1
0

0101000
+52 0 -50 0 *
Ed
 5e-06 1 1 0
1  27 0 0 1
2  47 11 0 0 1
2  48 12 4 0 1
0

0101000
+78 0 -50 0 *
Wi

0101100
-51 0 -49 0 +48 0 -76 0 +69 0 +62 5 *
Fa
0  1e-07 11 0

0101000
+47 0 *
Ed
 1e-07 1 1 0
1  28 0 71.8079559554801 231.989774137299
2  49 12 0 71.8079559554801 231.989774137299
2  50 15 0 71.8079559554801 231.989774137299
4 G1 12 0 15 0
0

0101000
+50 7 -57 7 *
Wi

0101100
-56 0 +45 4 +48 0 +72 4 *
Fa
0  1e-07 12 4

0101000
+44 0 *
Ve
1e-07
-50 35.5 2.43173374684922
0 0

0101101
*
Ve
1.00000002664535e-07
92 35.5 2.43173374684922
0 0

0101101
*
Ed
 1e-07 1 1 0
1  29 0 0 142
0

0101000
+42 0 -41 0 *
Ed
 1e-07 1 1 0
1  30 0 0 15.3295289116185
2  51 14 0 0 15.3295289116185
4 C0 14 0 3 0
0

0101000
+42 0 -66 0 *
Ed
 1.00000002664535e-07 1 1 0
1  30 0 0 15.3295289116185
2  51 14 0 0 15.3295289116185
4 C0 14 0 3 0
2  52 16 6 0 15.3295289116185
0

0101000
+41 6 -65 6 *
Wi

0101100
+40 0 -64 0 -39 0 +38 5 *
Fa
0  1e-07 17 0

0101000
+37 0 *
Ve
5.000001e-06
-59.0909090909676 35.5 0.310413403275913
0 0

0101101
*
Ed
 1e-07 1 1 0
1  31 0 0.0909090909032379 1
2  53 18 0 0.0909090909032379 1
2  54 14 0 0.0909090909032379 1
4 C0 18 0 14 0
0

0101000
+35 0 -42 0 *
Ve
5.000001e-06
-59.0909090909665 47.8366849136253 12.6470983169015
0 0

0101101
*
Ed
 5e-06 1 1 0
1  32 0 0 1
2  55 14 0 0 1
2  56 15 4 0 1
0

0101000
+59 0 -33 0 *
Ed
 5e-06 1 1 0
1  33 0 0 1
2  57 14 0 0 1
2  58 19 4 0 1
0

0101000
+33 0 -35 0 *
Wi

0101100
-34 0 -39 0 +58 0 -32 0 -31 0 *
Fa
0  1e-07 14 0

0101000
+30 0 *
Ve
5.000001e-06
101.090909090851 47.8366849135999 12.6470983169031
0 0

0101101
*
Ed
 1e-07 1 1 0
1  34 0 71.8079559554617 231.989774137279
2  59 15 0 71.8079559554617 231.989774137279
2  60 19 0 71.8079559554617 231.989774137279
4 G1 15 0 19 0
0

0101000
+28 7 -33 7 *
Ed
 5e-06 1 1 0
1  35 0 0 1
2  61 16 0 0 1
2  62 15 4 0 1
0

0101000
+28 0 -52 0 *
Wi

0101100
-55 0 -32 0 +27 4 -26 0 -49 0 -45 4 *
Fa
0  1e-07 15 4

0101000
+25 0 *
Ve
5.000001e-06
101.090909090852 35.5 0.310413403302978
0 0

0101101
*
Ed
 1e-07 1 1 0
1  36 0 0 0.909090909085164
2  63 20 0 0 0.909090909085164
2  64 16 0 0 0.909090909085164
4 C0 20 0 16 0
0

0101000
+41 0 -23 0 *
Ed
 5e-06 1 1 0
1  37 0 0 1
2  65 16 0 0 1
2  66 19 4 0 1
0

0101000
+28 0 -23 0 *
Wi

0101100
-22 0 +21 0 -26 0 +51 0 +38 5 *
Fa
0  1e-07 16 0

0101000
+20 0 *
Ve
5.00000001740467e-06
-50 35.5 0.310413403277447
0 0

0101101
*
Ed
 1e-07 1 1 0
1  38 0 0.84852813741173 2.9698484809835
2  67 18 0 0.84852813741173 2.9698484809835
4 C0 18 0 3 0
0

0101000
+18 0 -42 0 *
Ve
5.00000001464821e-06
92 35.5 0.310413403301439
0 0

0101101
*
Ed
 1e-07 1 1 0
1  38 0 0.848528137435721 2.9698484809835
2  67 18 0 0.848528137435721 2.9698484809835
4 C0 18 0 3 0
2  68 20 6 0.848528137435721 2.9698484809835
0

0101000
+16 6 -41 6 *
Ed
 1.5e-07 1 1 0
1  39 0 -35.5000000000053 106.499999999995
2  69 21 0 -35.5000000000053 106.499999999995
2  70 19 4 -35.5000000000053 106.499999999995
0

0101000
+18 0 -16 0 *
Wi

0101100
-17 0 -40 0 +15 5 +14 0 *
Fa
0  1e-07 21 0

0101000
+13 0 *
Ed
 5e-06 1 1 0
1  40 0 0 1
2  71 18 0 0 1
2  72 19 4 0 1
0

0101000
+35 0 -18 0 *
Wi

0101100
-11 0 -17 0 +34 0 *
Fa
0  1e-07 18 0

0101000
+10 0 *
Ed
 5e-06 1 1 0
1  41 0 0 1
2  73 20 0 0 1
2  74 19 4 0 1
0

0101000
+16 0 -23 0 *
Wi

0101100
-27 4 -31 0 -11 0 -14 0 -8 0 +21 0 *
Fa
0  1e-07 19 4

0101000
+7 0 *
Wi

0101100
-8 0 +22 0 +15 5 *
Fa
0  1e-07 20 0

0101000
+5 0 *
Sh

0101100
+108 0 -103 0 +94 0 -91 0 +84 0 -79 0 +70 0 -67 0 +60 0 -53 0 
-46 0 +43 0 +36 0 -29 0 +24 0 -19 0 +12 0 -9 0 +6 0 -4 0 
*
So

0100000
+3 0 *
Co

0100000
+2 0 *

+1 0 